<svg width="161" height="198" viewBox="0 0 161 198" fill="none" xmlns="http://www.w3.org/2000/svg">
<path d="M154.944 106.068L78.8721 196.815L2.80078 106.068H154.944Z" fill="white" stroke="black"/>
<path d="M102.87 54.7476L158.606 107.668H1.47656L57.2119 54.7476H102.87Z" fill="white" stroke="black"/>
<path d="M48.2695 106.954L57.4993 54.4905" stroke="black"/>
<path d="M78.8747 196.822L48.0873 107.622H3.396L78.8747 196.822Z" fill="white" stroke="black" stroke-linecap="round"/>
<path d="M79.2141 196.822L110.002 107.622H154.693L79.2141 196.822Z" fill="white" stroke="black" stroke-linecap="round"/>
<path d="M136.613 0.968994L113.416 55.0049L160.523 90.2028L106.487 67.0056L71.2895 114.113L94.4867 60.077L47.3794 24.8791L101.415 48.0763L136.613 0.968994Z" fill="white"/>
<path fill-rule="evenodd" clip-rule="evenodd" d="M113.416 55.0049L136.613 0.968994L101.415 48.0763L47.3794 24.8791L94.4867 60.077L71.2895 114.113L106.487 67.0056L160.523 90.2028L113.416 55.0049ZM153.173 85.9592L112.186 55.3344L132.37 8.31913L101.745 49.306L54.7295 29.1227L95.7164 59.7475L75.5331 106.763L106.158 65.7759L153.173 85.9592Z" fill="black"/>
</svg>
